<?xml version="1.0" encoding="utf-8"?>
<!-- Generator: Adobe Illustrator 14.0.0, SVG Export Plug-In . SVG Version: 6.00 Build 43363)  -->
<!DOCTYPE svg PUBLIC "-//W3C//DTD SVG 1.1//EN" "http://www.w3.org/Graphics/SVG/1.1/DTD/svg11.dtd">
<svg version="1.1" id="Layer_1" xmlns="http://www.w3.org/2000/svg" xmlns:xlink="http://www.w3.org/1999/xlink" x="0px" y="0px"
	 width="248px" height="100px" viewBox="0 0 248 100" enable-background="new 0 0 248 100" xml:space="preserve">
<g>
	<path fill-rule="evenodd" clip-rule="evenodd" fill="#DB1E2D" d="M234.256,63.137c-0.829,0.455-1.662,0.984-2.493,1.361
		c-2.495,1.135-5.063,1.436-7.329,1.436c-2.419,0-6.197-0.15-10.051-2.945c-5.365-3.779-7.707-10.277-7.707-15.945
		c0-11.713,9.521-17.456,17.304-17.456c2.72,0,5.516,0.679,7.783,2.116c3.777,2.492,4.761,5.742,5.288,7.48l-17.757,7.178
		l-5.817,0.455c1.888,9.596,8.388,15.188,15.565,15.188c3.854,0,6.65-1.357,9.219-2.645L234.256,63.137L234.256,63.137z
		 M227.154,40.619c1.433-0.529,2.189-0.982,2.189-2.041c0-3.022-3.398-6.498-7.479-6.498c-3.024,0-8.689,2.343-8.689,10.504
		c0,1.285,0.148,2.645,0.224,4.004L227.154,40.619L227.154,40.619z"/>
</g>
<g>
	<path fill-rule="evenodd" clip-rule="evenodd" fill="#0FA83C" d="M204.86,64.799h-13.376c1.738-2.266,2.041-2.492,2.041-4.002
		V48.479c0-5.895,0.076-14.283,0.302-22.141c0.076-3.854,0.38-8.691,0.454-12.167h-5.894l5.669-2.721h10.804
		c-2.341,1.361-3.099,1.815-3.398,4.46c-0.605,5.818-0.683,15.036-0.683,25.767v17.456c0,2.947,0.529,3.4,3.024,3.627
		c1.284,0.152,2.569,0.229,3.854,0.377L204.86,64.799L204.86,64.799z"/>
</g>
<g>
	<path fill-rule="evenodd" clip-rule="evenodd" fill="#3864B7" d="M180.077,33.289c1.734,1.436,5.364,4.459,5.364,10.201
		c0,5.592-3.176,8.236-6.349,10.732c-0.981,0.98-2.115,2.039-2.115,3.701s1.134,2.568,1.964,3.25l2.721,2.113
		c3.325,2.799,6.348,5.367,6.348,10.58c0,7.105-6.877,14.285-19.874,14.285c-10.957,0-16.247-5.217-16.247-10.809
		c0-2.721,1.36-6.574,5.821-9.221c4.683-2.871,11.031-3.248,14.43-3.475c-1.058-1.361-2.266-2.795-2.266-5.135
		c0-1.289,0.377-2.043,0.757-2.949c-0.833,0.074-1.662,0.15-2.419,0.15c-8.009,0-12.544-5.971-12.544-11.863
		c0-3.477,1.586-7.331,4.837-10.127c4.307-3.552,9.444-4.155,13.525-4.155h15.564l-4.835,2.72H180.077L180.077,33.289z
		 M174.71,66.84c-0.605-0.074-0.982-0.074-1.738-0.074c-0.678,0-4.76,0.15-7.935,1.209c-1.662,0.604-6.498,2.416-6.498,7.783
		c0,5.363,5.214,9.217,13.3,9.217c7.254,0,11.109-3.475,11.109-8.16C182.948,72.961,180.455,70.92,174.71,66.84L174.71,66.84z
		 M176.903,52.484c1.736-1.74,1.888-4.158,1.888-5.518c0-5.441-3.248-13.904-9.521-13.904c-1.966,0-4.08,0.982-5.29,2.493
		c-1.286,1.587-1.664,3.628-1.664,5.592c0,5.063,2.947,13.45,9.447,13.45C173.651,54.598,175.692,53.691,176.903,52.484
		L176.903,52.484z"/>
</g>
<g>
	<path fill-rule="evenodd" clip-rule="evenodd" fill="#F7BC14" d="M133.225,65.783c-12.016,0-18.438-9.371-18.438-17.834
		c0-9.898,8.087-18.362,19.571-18.362c11.108,0,18.062,8.69,18.062,17.833C152.42,56.34,145.542,65.783,133.225,65.783
		L133.225,65.783z M142.67,59.664c1.813-2.422,2.267-5.441,2.267-8.391c0-6.65-3.176-19.344-12.545-19.344
		c-2.493,0-4.986,0.982-6.8,2.568c-2.945,2.645-3.476,5.971-3.476,9.221c0,7.48,3.703,19.797,12.845,19.797
		C137.909,63.516,140.934,62.08,142.67,59.664L142.67,59.664z"/>
</g>
<g>
	<path fill-rule="evenodd" clip-rule="evenodd" fill="#DB1E2D" d="M93.024,65.783c-12.016,0-18.439-9.371-18.439-17.834
		c0-9.898,8.086-18.362,19.572-18.362c11.108,0,18.059,8.69,18.059,17.833C112.216,56.34,105.342,65.783,93.024,65.783
		L93.024,65.783z M102.469,59.664c1.813-2.422,2.268-5.441,2.268-8.391c0-6.65-3.174-19.344-12.543-19.344
		c-2.494,0-4.988,0.982-6.803,2.568c-2.946,2.645-3.475,5.971-3.475,9.221c0,7.48,3.704,19.797,12.847,19.797
		C97.708,63.516,100.731,62.08,102.469,59.664L102.469,59.664z"/>
</g>
<g>
	<path fill-rule="evenodd" clip-rule="evenodd" fill="#3864B7" d="M69.781,63.146L59.65,65.48c-4.109,0.641-7.793,1.205-11.69,1.205
		c-19.552,0-26.991-14.379-26.991-25.644c0-13.744,10.557-26.496,28.621-26.496c3.826,0,7.51,0.568,10.839,1.488
		c5.312,1.488,7.792,3.329,9.351,4.394l-5.879,5.596l-2.479,0.566l1.771-2.834c-2.409-2.337-6.803-6.658-15.16-6.658
		c-11.195,0-19.625,8.501-19.625,20.898c0,13.318,9.636,25.857,25.078,25.857c4.536,0,6.873-0.92,8.998-1.771V50.678l-10.697,0.566
		l5.667-3.047h15.019l-1.842,1.771c-0.496,0.424-0.567,0.566-0.709,1.131c-0.071,0.641-0.142,2.693-0.142,3.402V63.146
		L69.781,63.146z"/>
</g>
<path fill="#1E3EA2" d="M94.562,85.484V71.469h2.791l3.316,9.923c0.307,0.924,0.529,1.617,0.669,2.074
	c0.16-0.508,0.409-1.258,0.746-2.245l3.354-9.752h2.496v14.016h-1.788V73.755l-4.072,11.729h-1.673l-4.053-11.93v11.93H94.562z"/>
<path fill="#1E3EA2" d="M117.333,84.233c-0.636,0.54-1.25,0.923-1.841,1.146c-0.588,0.223-1.221,0.335-1.897,0.335
	c-1.114,0-1.972-0.273-2.57-0.818c-0.6-0.543-0.899-1.241-0.899-2.089c0-0.496,0.114-0.95,0.341-1.361
	c0.226-0.412,0.522-0.74,0.89-0.989c0.364-0.249,0.777-0.437,1.237-0.564c0.339-0.09,0.848-0.173,1.528-0.259
	c1.39-0.166,2.412-0.363,3.068-0.591c0.006-0.237,0.011-0.386,0.011-0.449c0-0.701-0.164-1.195-0.488-1.483
	c-0.44-0.389-1.094-0.584-1.961-0.584c-0.808,0-1.405,0.145-1.792,0.425c-0.386,0.286-0.67,0.787-0.855,1.508l-1.682-0.229
	c0.153-0.721,0.404-1.303,0.755-1.744c0.351-0.442,0.856-0.784,1.521-1.023c0.662-0.24,1.429-0.357,2.304-0.357
	c0.865,0,1.569,0.101,2.111,0.306c0.543,0.203,0.94,0.459,1.193,0.77c0.257,0.308,0.437,0.698,0.536,1.17
	c0.059,0.293,0.087,0.821,0.087,1.588v2.292c0,1.603,0.035,2.613,0.11,3.036c0.072,0.426,0.219,0.831,0.435,1.22h-1.797
	C117.5,85.127,117.384,84.71,117.333,84.233z M117.189,80.391c-0.624,0.254-1.562,0.469-2.809,0.649
	c-0.708,0.101-1.209,0.215-1.502,0.345c-0.292,0.124-0.52,0.312-0.678,0.557c-0.162,0.247-0.24,0.519-0.24,0.818
	c0,0.46,0.174,0.841,0.52,1.146c0.35,0.308,0.856,0.459,1.527,0.459c0.661,0,1.252-0.145,1.767-0.435
	c0.516-0.291,0.896-0.687,1.139-1.19c0.184-0.388,0.276-0.962,0.276-1.72V80.391z"/>
<path fill="#1E3EA2" d="M121.598,89.373v-14.04h1.567v1.317c0.368-0.516,0.785-0.904,1.252-1.16c0.465-0.26,1.028-0.387,1.69-0.387
	c0.868,0,1.632,0.223,2.296,0.667c0.662,0.447,1.163,1.075,1.499,1.889c0.339,0.813,0.508,1.703,0.508,2.673
	c0,1.038-0.186,1.974-0.559,2.805c-0.374,0.833-0.916,1.468-1.626,1.912c-0.711,0.442-1.457,0.665-2.241,0.665
	c-0.573,0-1.089-0.12-1.543-0.364c-0.456-0.242-0.831-0.547-1.124-0.919v4.942H121.598z M123.154,80.466
	c0,1.305,0.265,2.272,0.795,2.896c0.527,0.625,1.169,0.938,1.92,0.938c0.765,0,1.421-0.324,1.966-0.97
	c0.543-0.647,0.815-1.651,0.815-3.007c0-1.293-0.267-2.263-0.798-2.907c-0.532-0.643-1.167-0.965-1.905-0.965
	c-0.734,0-1.383,0.342-1.947,1.028C123.438,78.162,123.154,79.159,123.154,80.466z"/>
<path fill="#1E3EA2" d="M131.678,82.455l1.701-0.27c0.095,0.685,0.36,1.205,0.798,1.568c0.438,0.362,1.048,0.545,1.832,0.545
	c0.789,0,1.376-0.161,1.757-0.483c0.384-0.322,0.575-0.698,0.575-1.131c0-0.389-0.169-0.696-0.507-0.919
	c-0.234-0.153-0.823-0.347-1.759-0.584c-1.263-0.317-2.138-0.594-2.624-0.828c-0.488-0.229-0.857-0.552-1.109-0.965
	c-0.251-0.41-0.377-0.862-0.377-1.36c0-0.455,0.103-0.872,0.312-1.259c0.205-0.386,0.488-0.706,0.845-0.957
	c0.268-0.2,0.631-0.367,1.095-0.504c0.463-0.137,0.958-0.205,1.485-0.205c0.797,0,1.498,0.112,2.1,0.342
	c0.603,0.232,1.046,0.54,1.333,0.934c0.286,0.391,0.484,0.916,0.594,1.573l-1.684,0.229c-0.075-0.522-0.299-0.931-0.663-1.224
	c-0.368-0.293-0.886-0.442-1.554-0.442c-0.792,0-1.354,0.132-1.693,0.396c-0.338,0.26-0.505,0.567-0.505,0.914
	c0,0.225,0.068,0.425,0.208,0.604c0.14,0.186,0.36,0.337,0.66,0.459c0.173,0.063,0.679,0.21,1.52,0.44
	c1.218,0.324,2.066,0.591,2.548,0.799c0.482,0.207,0.86,0.508,1.134,0.901c0.272,0.397,0.41,0.887,0.41,1.473
	c0,0.574-0.166,1.114-0.501,1.622c-0.336,0.506-0.818,0.896-1.45,1.175c-0.629,0.276-1.345,0.416-2.141,0.416
	c-1.318,0-2.323-0.276-3.015-0.821C132.311,84.343,131.869,83.532,131.678,82.455z"/>
</svg>
